<?xml version="1.0" encoding="UTF-8"?>
<svg xmlns="http://www.w3.org/2000/svg" viewBox="0 0 1600 900" preserveAspectRatio="xMidYMid meet" aria-label="가족 집 일러스트">
  <defs>
    <linearGradient id="fh-wall" x1="0" y1="0" x2="0" y2="1">
      <stop offset="0"   stop-color="#F7EDD8"/>
      <stop offset="0.6" stop-color="#F0E0C0"/>
      <stop offset="1"   stop-color="#E8D2A8"/>
    </linearGradient>
    <linearGradient id="fh-floor" x1="0" y1="0" x2="0" y2="1">
      <stop offset="0" stop-color="#C89050"/>
      <stop offset="1" stop-color="#9E6C34"/>
    </linearGradient>
    <linearGradient id="fh-rug" x1="0" y1="0" x2="1" y2="0">
      <stop offset="0"   stop-color="#B83030"/>
      <stop offset="0.5" stop-color="#D05050"/>
      <stop offset="1"   stop-color="#B83030"/>
    </linearGradient>
    <linearGradient id="fh-sofa" x1="0" y1="0" x2="0" y2="1">
      <stop offset="0" stop-color="#7B5EA7"/>
      <stop offset="1" stop-color="#5A3F80"/>
    </linearGradient>
    <linearGradient id="fh-window" x1="0" y1="0" x2="0" y2="1">
      <stop offset="0"   stop-color="#8FCBEE"/>
      <stop offset="1"   stop-color="#C6E8F8"/>
    </linearGradient>
  </defs>

  <!-- ═══ 배경 ═══════════════════════════════════════════════════ -->
  <!-- 벽 -->
  <rect x="0" y="0" width="1600" height="900" fill="url(#fh-wall)"/>
  <!-- 천장 몰딩 -->
  <rect x="0" y="0"  width="1600" height="14" fill="#D0B890"/>
  <rect x="0" y="14" width="1600" height="5"  fill="#B89860"/>

  <!-- 창문 (배경 우측) -->
  <rect x="1330" y="55" width="230" height="190" rx="8" fill="url(#fh-window)" stroke="#A08060" stroke-width="6"/>
  <line x1="1445" y1="55"  x2="1445" y2="245" stroke="#A08060" stroke-width="4"/>
  <line x1="1330" y1="152" x2="1560" y2="152" stroke="#A08060" stroke-width="4"/>
  <circle cx="1500" cy="98"  r="32" fill="#FFE08A" opacity="0.65"/>
  <!-- 커튼 -->
  <rect x="1320" y="48" width="32" height="205" rx="8" fill="#C03030" opacity="0.82"/>
  <rect x="1548" y="48" width="32" height="205" rx="8" fill="#C03030" opacity="0.82"/>

  <!-- 벽/바닥 경계 몰딩 -->
  <rect x="0" y="456" width="1600" height="20" fill="#C0A070"/>
  <rect x="0" y="472" width="1600" height="8"  fill="#9E7840"/>

  <!-- 나무 바닥 -->
  <rect x="0" y="480" width="1600" height="420" fill="url(#fh-floor)"/>
  <!-- 마루 결 -->
  <g stroke="#A86830" stroke-width="2" opacity="0.45">
    <line x1="0" y1="520" x2="1600" y2="520"/>
    <line x1="0" y1="570" x2="1600" y2="570"/>
    <line x1="0" y1="620" x2="1600" y2="620"/>
    <line x1="0" y1="670" x2="1600" y2="670"/>
    <line x1="0" y1="720" x2="1600" y2="720"/>
    <line x1="0" y1="770" x2="1600" y2="770"/>
    <line x1="0" y1="820" x2="1600" y2="820"/>
    <line x1="0" y1="870" x2="1600" y2="870"/>
    <line x1="160"  y1="480" x2="160"  y2="900"/>
    <line x1="420"  y1="480" x2="420"  y2="900"/>
    <line x1="680"  y1="480" x2="680"  y2="900"/>
    <line x1="940"  y1="480" x2="940"  y2="900"/>
    <line x1="1200" y1="480" x2="1200" y2="900"/>
    <line x1="1460" y1="480" x2="1460" y2="900"/>
  </g>

  <!-- 러그 (가족 서는 영역) -->
  <rect x="250" y="740" width="1100" height="118" rx="14" fill="url(#fh-rug)" opacity="0.82"/>
  <rect x="262" y="752" width="1076" height="94"  rx="10" fill="none" stroke="#FFD166" stroke-width="4" opacity="0.55"/>

  <!-- 소파 좌측 (배경 장식) -->
  <rect x="30"  y="575" width="210" height="128" rx="16" fill="url(#fh-sofa)" stroke="#3A2460" stroke-width="3"/>
  <rect x="20"  y="594" width="30"  height="86"  rx="8"  fill="#6A4E90" stroke="#3A2460" stroke-width="3"/>
  <rect x="190" y="594" width="30"  height="86"  rx="8"  fill="#6A4E90" stroke="#3A2460" stroke-width="3"/>
  <rect x="34"  y="660" width="206" height="52"  rx="12" fill="#8B6CB0" stroke="#3A2460" stroke-width="3"/>
  <ellipse cx="84"  cy="638" rx="30" ry="22" fill="#E63946" opacity="0.88"/>
  <ellipse cx="156" cy="638" rx="30" ry="22" fill="#FFD166" opacity="0.88"/>

  <!-- 소파 우측 -->
  <rect x="1360" y="575" width="210" height="128" rx="16" fill="url(#fh-sofa)" stroke="#3A2460" stroke-width="3"/>
  <rect x="1350" y="594" width="30"  height="86"  rx="8"  fill="#6A4E90" stroke="#3A2460" stroke-width="3"/>
  <rect x="1520" y="594" width="30"  height="86"  rx="8"  fill="#6A4E90" stroke="#3A2460" stroke-width="3"/>
  <rect x="1364" y="660" width="206" height="52"  rx="12" fill="#8B6CB0" stroke="#3A2460" stroke-width="3"/>
  <ellipse cx="1414" cy="638" rx="30" ry="22" fill="#FFD166" opacity="0.88"/>
  <ellipse cx="1486" cy="638" rx="30" ry="22" fill="#A8DADC" opacity="0.88"/>

  <!-- 화분 우측 끝 -->
  <rect  x="1562" y="804" width="32" height="58" rx="4" fill="#C09050"/>
  <ellipse cx="1578" cy="802" rx="20" ry="10" fill="#8B6040"/>
  <path d="M 1578,800 Q 1548,758 1556,718" stroke="#3F7D54" stroke-width="6" fill="none"/>
  <ellipse cx="1554" cy="714" rx="19" ry="13" fill="#3F7D54"/>
  <path d="M 1578,800 Q 1606,760 1598,720" stroke="#3F7D54" stroke-width="6" fill="none"/>
  <ellipse cx="1600" cy="716" rx="19" ry="13" fill="#3F7D54"/>
  <path d="M 1578,800 L 1578,708" stroke="#3F7D54" stroke-width="6" fill="none"/>
  <ellipse cx="1578" cy="704" rx="19" ry="13" fill="#3F7D54"/>

  <!-- ═══ 클릭 아이템 (data-hit 0~9) ═══════════════════════════ -->

  <!-- ── 상단 밴드 ─────────────────────────────────────────────── -->

  <!-- hit:0  가족 사진 — U0 translate(50,120)  pad 270×270 -->
  <g data-hit="0" transform="translate(50,120)">
    <rect class="hit-pad" x="0" y="0" width="270" height="270" fill="transparent"/>
    <!-- 액자 틀 -->
    <rect x="8"  y="8"  width="254" height="224" rx="10" fill="#8B6030" stroke="#5A3A10" stroke-width="6"/>
    <rect x="20" y="20" width="230" height="200" rx="6"  fill="#F5EAD0" stroke="#7A5020" stroke-width="2"/>
    <!-- 사진 배경 -->
    <rect x="24" y="24" width="222" height="192" rx="4" fill="#D4EAF8"/>
    <!-- 가족 5인 -->
    <!-- 아버지 (가장 큰) -->
    <circle cx="70"  cy="104" r="20" fill="#F0C49B"/>
    <path d="M 52,98 A 20 20 0 0 1 88,98 L 88,90 A 20 20 0 0 0 52,90 Z" fill="#3A2A1A"/>
    <rect x="52" y="124" width="36" height="64" rx="10" fill="#1B5FA3"/>
    <!-- 어머니 -->
    <circle cx="118" cy="108" r="18" fill="#FFE0BD"/>
    <path d="M 101,102 A 18 18 0 0 1 135,102 L 135,94 A 18 18 0 0 0 101,94 Z" fill="#3A2A1A"/>
    <rect x="96" y="124" width="10" height="64" rx="5" fill="#3A2A1A"/>
    <rect x="130" y="124" width="10" height="64" rx="5" fill="#3A2A1A"/>
    <path d="M 100,126 Q 118,120 136,126 L 140,188 L 96,188 Z" fill="#C03030" opacity="0.85"/>
    <!-- 남자아이 -->
    <circle cx="160" cy="116" r="15" fill="#F0C49B"/>
    <path d="M 147,110 A 15 15 0 0 1 173,110 L 173,104 A 15 15 0 0 0 147,104 Z" fill="#3A2A1A"/>
    <rect x="147" y="131" width="28" height="52" rx="8" fill="#3F7D54"/>
    <!-- 여자아이 -->
    <circle cx="196" cy="118" r="14" fill="#FFE0BD"/>
    <path d="M 188,110 Q 180,100 174,104" stroke="#3A2A1A" stroke-width="3.5" fill="none" stroke-linecap="round"/>
    <path d="M 204,110 Q 212,100 218,104" stroke="#3A2A1A" stroke-width="3.5" fill="none" stroke-linecap="round"/>
    <path d="M 182,132 Q 196,126 210,132 L 212,180 L 180,180 Z" fill="#FFD166" opacity="0.9"/>
    <!-- 아기 (가장 작은) -->
    <circle cx="228" cy="128" r="12" fill="#FFE0BD"/>
    <rect x="216" y="140" width="24" height="34" rx="10" fill="#A8DADC"/>
    <!-- 바닥 -->
    <rect x="24" y="182" width="222" height="28" rx="2" fill="#B89050" opacity="0.5"/>
    <!-- 액자 고리 -->
    <circle cx="135" cy="8" r="7" fill="#5A3A10"/>
    <!-- 캡션 띠 -->
    <rect x="8" y="226" width="254" height="36" rx="0" fill="#F0E4C4"/>
    <text x="135" y="250" text-anchor="middle" font-family="'Jua', sans-serif" font-size="22" fill="#5A3A10">우리 가족</text>
  </g>

  <!-- hit:6  사촌 사진 — U1 translate(360,120)  pad 250×270 -->
  <g data-hit="6" transform="translate(360,120)">
    <rect class="hit-pad" x="0" y="0" width="250" height="270" fill="transparent"/>
    <!-- 액자 틀 (녹색) -->
    <rect x="8"  y="8"  width="234" height="200" rx="10" fill="#3F7D54" stroke="#235A38" stroke-width="6"/>
    <rect x="20" y="20" width="210" height="176" rx="6"  fill="#F0FAF4" stroke="#235A38" stroke-width="2"/>
    <!-- 사진 배경 -->
    <rect x="24" y="24" width="202" height="168" rx="4" fill="#E0F4E8"/>
    <!-- 사촌 2인 -->
    <circle cx="98"  cy="96"  r="22" fill="#F0C49B"/>
    <path d="M 78,88 A 22 22 0 0 1 118,88 L 118,80 A 22 22 0 0 0 78,80 Z" fill="#3A2A1A"/>
    <rect x="78" y="118" width="40" height="60" rx="10" fill="#1B5FA3" opacity="0.9"/>
    <circle cx="152" cy="100" r="20" fill="#FFE0BD"/>
    <path d="M 144,91 Q 136,80 130,84" stroke="#3A2A1A" stroke-width="4" fill="none" stroke-linecap="round"/>
    <path d="M 160,91 Q 168,80 174,84" stroke="#3A2A1A" stroke-width="4" fill="none" stroke-linecap="round"/>
    <path d="M 132,120 Q 152,114 172,120 L 174,180 L 130,180 Z" fill="#E63946" opacity="0.85"/>
    <!-- 바닥 -->
    <rect x="24" y="168" width="202" height="28" rx="2" fill="#90C890" opacity="0.45"/>
    <!-- 고리 -->
    <circle cx="125" cy="8" r="7" fill="#235A38"/>
    <!-- 캡션 -->
    <rect x="8" y="202" width="234" height="60" rx="8" fill="#E8F8EE" stroke="#3F7D54" stroke-width="3"/>
    <text x="125" y="226" text-anchor="middle" font-family="'Jua', sans-serif" font-size="22" fill="#235A38">사촌 사진</text>
    <text x="125" y="252" text-anchor="middle" font-family="'Gowun Dodum', sans-serif" font-size="14" fill="#3F7D54">한 마디 거리의 가족</text>
  </g>

  <!-- hit:7  문패 — U2 translate(660,120)  pad 250×270 -->
  <g data-hit="7" transform="translate(660,120)">
    <rect class="hit-pad" x="0" y="0" width="250" height="270" fill="transparent"/>
    <!-- 문패 본체 -->
    <rect x="18" y="18" width="214" height="148" rx="16" fill="#5A3A10" stroke="#3A2008" stroke-width="6"/>
    <rect x="30" y="30" width="190" height="124" rx="10" fill="#7A5020" stroke="#A08040" stroke-width="2"/>
    <!-- 집 모양 아이콘 -->
    <polygon points="125,46 82,74 168,74" fill="#FFD166" opacity="0.92"/>
    <rect x="90" y="74" width="70" height="50" rx="4" fill="#FFD166" opacity="0.92"/>
    <rect x="108" y="90" width="34" height="34" rx="3" fill="#5A3A10"/>
    <!-- 성씨 텍스트 -->
    <text x="125" y="176" text-anchor="middle" font-family="'Jua', sans-serif" font-size="26" fill="#FFD166">○○네 집</text>
    <!-- 걸이 나사 -->
    <circle cx="48"  cy="30" r="7" fill="#A08040"/>
    <circle cx="202" cy="30" r="7" fill="#A08040"/>
    <circle cx="48"  cy="152" r="7" fill="#A08040"/>
    <circle cx="202" cy="152" r="7" fill="#A08040"/>
    <!-- 캡션 박스 -->
    <rect x="18" y="196" width="214" height="60" rx="10" fill="#F5EAD0" stroke="#5A3A10" stroke-width="3"/>
    <text x="125" y="220" text-anchor="middle" font-family="'Jua', sans-serif" font-size="22" fill="#5A3A10">문패</text>
    <text x="125" y="246" text-anchor="middle" font-family="'Gowun Dodum', sans-serif" font-size="14" fill="#8A6030">우리 집 성씨 표시</text>
  </g>

  <!-- hit:8  별명 메모 — U3 translate(960,120)  pad 240×270 -->
  <g data-hit="8" transform="translate(960,120)">
    <rect class="hit-pad" x="0" y="0" width="240" height="270" fill="transparent"/>
    <!-- 메모지 -->
    <rect x="18" y="8" width="204" height="228" rx="6" fill="#FFF9C4" stroke="#E8C820" stroke-width="3" transform="rotate(-2 120 122)"/>
    <!-- 핀 -->
    <circle cx="120" cy="12" r="10" fill="#E63946"/>
    <circle cx="120" cy="12" r="4"  fill="#FF8080"/>
    <!-- 룰드 선 -->
    <line x1="38" y1="56"  x2="202" y2="50"  stroke="#C8B000" stroke-width="2" opacity="0.45"/>
    <line x1="36" y1="78"  x2="200" y2="72"  stroke="#C8B000" stroke-width="2" opacity="0.45"/>
    <line x1="34" y1="100" x2="198" y2="94"  stroke="#C8B000" stroke-width="2" opacity="0.45"/>
    <line x1="32" y1="122" x2="196" y2="116" stroke="#C8B000" stroke-width="2" opacity="0.45"/>
    <line x1="30" y1="144" x2="194" y2="138" stroke="#C8B000" stroke-width="2" opacity="0.45"/>
    <line x1="28" y1="166" x2="192" y2="160" stroke="#C8B000" stroke-width="2" opacity="0.45"/>
    <!-- 텍스트 -->
    <text x="114" y="48"  text-anchor="middle" font-family="'Jua', sans-serif"          font-size="19" fill="#C08000" transform="rotate(-2 114 48)">우리 가족 별명</text>
    <text x="110" y="76"  text-anchor="middle" font-family="'Gowun Dodum', sans-serif"  font-size="15" fill="#8A6000" transform="rotate(-2 110 76)">아빠 : 곰돌이</text>
    <text x="108" y="98"  text-anchor="middle" font-family="'Gowun Dodum', sans-serif"  font-size="15" fill="#8A6000" transform="rotate(-2 108 98)">엄마 : 꽃님이</text>
    <text x="106" y="120" text-anchor="middle" font-family="'Gowun Dodum', sans-serif"  font-size="15" fill="#8A6000" transform="rotate(-2 106 120)">오빠 : 번개</text>
    <text x="104" y="142" text-anchor="middle" font-family="'Gowun Dodum', sans-serif"  font-size="15" fill="#8A6000" transform="rotate(-2 104 142)">언니 : 별이</text>
    <text x="102" y="164" text-anchor="middle" font-family="'Gowun Dodum', sans-serif"  font-size="15" fill="#8A6000" transform="rotate(-2 102 164)">막내 : 콩이</text>
    <!-- 하단 캡션 -->
    <rect x="18" y="238" width="204" height="30" rx="6" fill="#FFF9C4" stroke="#E8C820" stroke-width="2" transform="rotate(-2 120 253)"/>
    <text x="116" y="258" text-anchor="middle" font-family="'Jua', sans-serif" font-size="19" fill="#B08000" transform="rotate(-2 116 258)">별명 메모</text>
  </g>

  <!-- hit:9  효도 액자 — U4 translate(1250,120)  pad 290×270 -->
  <g data-hit="9" transform="translate(1250,120)">
    <rect class="hit-pad" x="0" y="0" width="290" height="270" fill="transparent"/>
    <!-- 족자 롤 상단 -->
    <rect x="16" y="8"  width="258" height="18" rx="8" fill="#8B6030" stroke="#5A3A10" stroke-width="3"/>
    <!-- 족자 본체 -->
    <rect x="26" y="22" width="238" height="190" fill="#FFF8E0" stroke="#C8A060" stroke-width="3"/>
    <rect x="30" y="26" width="230" height="182" rx="2" fill="none" stroke="#D4A040" stroke-width="2"/>
    <!-- 매화 좌 -->
    <g fill="#E63946" opacity="0.45">
      <circle cx="52" cy="56" r="8"/>
      <circle cx="44" cy="44" r="6"/>
      <circle cx="60" cy="44" r="6"/>
      <circle cx="38" cy="60" r="6"/>
      <circle cx="66" cy="60" r="6"/>
    </g>
    <!-- 매화 우 -->
    <g fill="#E63946" opacity="0.45">
      <circle cx="238" cy="56" r="8"/>
      <circle cx="230" cy="44" r="6"/>
      <circle cx="246" cy="44" r="6"/>
      <circle cx="224" cy="60" r="6"/>
      <circle cx="252" cy="60" r="6"/>
    </g>
    <!-- 효도 그림: 아이가 두 손 모아 부모에게 절하는 모습 -->
    <!-- 부모 (왼쪽 두 사람) -->
    <circle cx="80"  cy="80" r="16" fill="#F0C49B"/>
    <rect   x="66"  y="96" width="28" height="38" rx="8" fill="#1B5FA3"/>
    <circle cx="112" cy="84" r="14" fill="#FFE0BD"/>
    <path d="M 98,98 Q 112,93 126,98 L 128,134 L 96,134 Z" fill="#E63946"/>
    <!-- 하트 -->
    <path d="M 96,58 C 96,50 104,46 112,54 C 120,46 128,50 128,58 C 128,68 112,78 112,78 C 112,78 96,68 96,58 Z" fill="#E63946" opacity="0.85"/>
    <!-- 아이 (오른쪽, 허리 숙여 절하는 모습) -->
    <circle cx="196" cy="76" r="18" fill="#FFE0BD"/>
    <!-- 상체 앞으로 기울임 -->
    <path d="M 196,94 L 168,130" stroke="#3F7D54" stroke-width="18" stroke-linecap="round"/>
    <!-- 팔 뻗어 앞으로 -->
    <path d="M 178,118 L 152,136" stroke="#F0C49B" stroke-width="10" stroke-linecap="round"/>
    <!-- 다리 -->
    <path d="M 196,94 L 200,138" stroke="#2D3047" stroke-width="14" stroke-linecap="round"/>
    <!-- 큰 한글 "효도" -->
    <text x="145" y="180" text-anchor="middle" font-family="'Jua', sans-serif" font-size="54" fill="#2D3047" opacity="0.18">효도</text>
    <!-- 족자 롤 하단 -->
    <rect x="16" y="208" width="258" height="18" rx="8" fill="#8B6030" stroke="#5A3A10" stroke-width="3"/>
    <!-- 족자 끈 -->
    <line x1="72"  y1="226" x2="72"  y2="254" stroke="#8B6030" stroke-width="4"/>
    <line x1="218" y1="226" x2="218" y2="254" stroke="#8B6030" stroke-width="4"/>
    <circle cx="72"  cy="258" r="6" fill="#5A3A10"/>
    <circle cx="218" cy="258" r="6" fill="#5A3A10"/>
    <!-- 캡션 -->
    <text x="145" y="268" text-anchor="middle" font-family="'Jua', sans-serif" font-size="18" fill="#5A3A10">효도</text>
  </g>

  <!-- ── 하단 밴드 ─────────────────────────────────────────────── -->

  <!-- hit:1  아버지 — L0 translate(50,480)  pad 270×360 -->
  <g data-hit="1" transform="translate(50,480)">
    <rect class="hit-pad" x="0" y="0" width="270" height="360" fill="transparent"/>
    <!-- 머리 -->
    <circle cx="135" cy="66" r="46" fill="#F0C49B"/>
    <!-- 머리카락 -->
    <path d="M 92,56 A 46 46 0 0 1 178,56 L 178,46 A 46 46 0 0 0 92,46 Z" fill="#3A2A1A"/>
    <!-- 눈썹 -->
    <path d="M 110,50 Q 118,46 126,50" stroke="#3A2A1A" stroke-width="3"   fill="none" stroke-linecap="round"/>
    <path d="M 144,50 Q 152,46 160,50" stroke="#3A2A1A" stroke-width="3"   fill="none" stroke-linecap="round"/>
    <!-- 눈 -->
    <circle cx="118" cy="62" r="5" fill="#2D3047"/>
    <circle cx="152" cy="62" r="5" fill="#2D3047"/>
    <!-- 입 -->
    <path d="M 122,82 Q 135,92 148,82" stroke="#C08070" stroke-width="3" fill="none" stroke-linecap="round"/>
    <!-- 몸통 (양복) -->
    <rect x="90" y="112" width="90" height="122" rx="16" fill="#1B5FA3"/>
    <!-- 와이셔츠 깃 -->
    <path d="M 108,114 L 128,130" fill="none" stroke="#F0F0F0" stroke-width="8" stroke-linecap="round"/>
    <path d="M 162,114 L 142,130" fill="none" stroke="#F0F0F0" stroke-width="8" stroke-linecap="round"/>
    <!-- 넥타이 -->
    <polygon points="135,116 128,142 135,154 142,142" fill="#E63946"/>
    <!-- 팔 -->
    <path d="M 90,128 L 52,168 L 58,198"  fill="none" stroke="#1B5FA3" stroke-width="24" stroke-linecap="round" stroke-linejoin="round"/>
    <path d="M 180,128 L 218,168 L 212,198" fill="none" stroke="#1B5FA3" stroke-width="24" stroke-linecap="round" stroke-linejoin="round"/>
    <!-- 손 -->
    <circle cx="58"  cy="202" r="17" fill="#F0C49B"/>
    <circle cx="212" cy="202" r="17" fill="#F0C49B"/>
    <!-- 바지 -->
    <rect x="90" y="230" width="90" height="96" rx="8" fill="#2D3047"/>
    <line x1="135" y1="234" x2="135" y2="326" stroke="#1A2030" stroke-width="4"/>
    <!-- 신발 -->
    <ellipse cx="108" cy="330" rx="28" ry="11" fill="#1A1A1A"/>
    <ellipse cx="162" cy="330" rx="28" ry="11" fill="#1A1A1A"/>
    <!-- 라벨 -->
    <text x="135" y="356" text-anchor="middle" font-family="'Jua', sans-serif" font-size="20" fill="#2D3047">아버지</text>
  </g>

  <!-- hit:2  어머니 — L1 translate(360,480)  pad 250×360 -->
  <g data-hit="2" transform="translate(360,480)">
    <rect class="hit-pad" x="0" y="0" width="250" height="360" fill="transparent"/>
    <!-- 머리 -->
    <circle cx="125" cy="66" r="42" fill="#FFE0BD"/>
    <!-- 머리카락 + 긴 머리 -->
    <path d="M 86,56 A 42 42 0 0 1 164,56 L 164,48 A 42 42 0 0 0 86,48 Z" fill="#3A2A1A"/>
    <rect x="84"  y="56" width="10" height="118" rx="5" fill="#3A2A1A"/>
    <rect x="156" y="56" width="10" height="118" rx="5" fill="#3A2A1A"/>
    <!-- 눈 -->
    <circle cx="110" cy="62" r="5" fill="#2D3047"/>
    <circle cx="140" cy="62" r="5" fill="#2D3047"/>
    <path d="M 104,54 Q 110,50 116,54" stroke="#3A2A1A" stroke-width="2.5" fill="none" stroke-linecap="round"/>
    <path d="M 134,54 Q 140,50 146,54" stroke="#3A2A1A" stroke-width="2.5" fill="none" stroke-linecap="round"/>
    <!-- 볼 -->
    <circle cx="96"  cy="74" r="10" fill="#FFB0B0" opacity="0.5"/>
    <circle cx="154" cy="74" r="10" fill="#FFB0B0" opacity="0.5"/>
    <!-- 입 -->
    <path d="M 116,82 Q 125,90 134,82" stroke="#D06060" stroke-width="3" fill="none" stroke-linecap="round"/>
    <!-- 원피스 몸통 -->
    <path d="M 88,108 Q 125,102 162,108 L 166,240 L 84,240 Z" fill="#E63946"/>
    <!-- 소매 -->
    <path d="M 88,116 L 52,146 L 56,178"  fill="none" stroke="#E63946" stroke-width="22" stroke-linecap="round" stroke-linejoin="round"/>
    <path d="M 162,116 L 198,146 L 194,178" fill="none" stroke="#E63946" stroke-width="22" stroke-linecap="round" stroke-linejoin="round"/>
    <!-- 손 -->
    <circle cx="56"  cy="182" r="16" fill="#FFE0BD"/>
    <circle cx="194" cy="182" r="16" fill="#FFE0BD"/>
    <!-- 치마 -->
    <path d="M 84,236 Q 125,244 166,236 L 176,330 L 74,330 Z" fill="#B82020"/>
    <!-- 허리 띠 -->
    <rect x="88" y="230" width="74" height="12" rx="4" fill="#FFD166"/>
    <!-- 신발 -->
    <ellipse cx="100" cy="332" rx="22" ry="10" fill="#8B0020"/>
    <ellipse cx="150" cy="332" rx="22" ry="10" fill="#8B0020"/>
    <!-- 라벨 -->
    <text x="125" y="356" text-anchor="middle" font-family="'Jua', sans-serif" font-size="20" fill="#2D3047">어머니</text>
  </g>

  <!-- hit:3  남자아이 — L2 translate(660,480)  pad 250×360 -->
  <g data-hit="3" transform="translate(660,480)">
    <rect class="hit-pad" x="0" y="0" width="250" height="360" fill="transparent"/>
    <!-- 머리 -->
    <circle cx="125" cy="74" r="38" fill="#F0C49B"/>
    <!-- 짧은 머리 -->
    <path d="M 90,64 A 38 38 0 0 1 160,64 L 160,56 A 38 38 0 0 0 90,56 Z" fill="#3A2A1A"/>
    <!-- 눈 -->
    <circle cx="112" cy="72" r="4.5" fill="#2D3047"/>
    <circle cx="138" cy="72" r="4.5" fill="#2D3047"/>
    <!-- 입 -->
    <path d="M 116,88 Q 125,96 134,88" stroke="#C08070" stroke-width="2.5" fill="none" stroke-linecap="round"/>
    <!-- 티셔츠 몸통 -->
    <rect x="94" y="112" width="62" height="82" rx="12" fill="#3F7D54"/>
    <!-- 줄무늬 -->
    <rect x="94" y="126" width="62" height="7" fill="#2D5A3C" opacity="0.55"/>
    <rect x="94" y="142" width="62" height="7" fill="#2D5A3C" opacity="0.55"/>
    <rect x="94" y="158" width="62" height="7" fill="#2D5A3C" opacity="0.55"/>
    <!-- 팔 -->
    <path d="M 94,126 L 62,154 L 64,182"  fill="none" stroke="#3F7D54" stroke-width="18" stroke-linecap="round" stroke-linejoin="round"/>
    <path d="M 156,126 L 188,154 L 186,182" fill="none" stroke="#3F7D54" stroke-width="18" stroke-linecap="round" stroke-linejoin="round"/>
    <!-- 손 -->
    <circle cx="64"  cy="186" r="13" fill="#F0C49B"/>
    <circle cx="186" cy="186" r="13" fill="#F0C49B"/>
    <!-- 바지 -->
    <rect x="94" y="190" width="62" height="104" rx="8" fill="#1B5FA3"/>
    <line x1="125" y1="194" x2="125" y2="294" stroke="#144080" stroke-width="3"/>
    <!-- 신발 -->
    <ellipse cx="108" cy="296" rx="22" ry="10" fill="#2D3047"/>
    <ellipse cx="142" cy="296" rx="22" ry="10" fill="#2D3047"/>
  </g>

  <!-- hit:4  여자아이 — L3 translate(960,480)  pad 240×360 -->
  <g data-hit="4" transform="translate(960,480)">
    <rect class="hit-pad" x="0" y="0" width="240" height="360" fill="transparent"/>
    <!-- 머리 -->
    <circle cx="120" cy="74" r="36" fill="#FFE0BD"/>
    <!-- 머리카락 양갈래 -->
    <path d="M 88,64 A 36 36 0 0 1 152,64 L 152,56 A 36 36 0 0 0 88,56 Z" fill="#3A2A1A"/>
    <circle cx="86"  cy="60" r="13" fill="#3A2A1A"/>
    <circle cx="154" cy="60" r="13" fill="#3A2A1A"/>
    <!-- 리본 -->
    <path d="M 76,50 Q 86,44 96,50 Q 86,56 76,50" fill="#E63946"/>
    <path d="M 144,50 Q 154,44 164,50 Q 154,56 144,50" fill="#E63946"/>
    <!-- 눈 -->
    <circle cx="108" cy="72" r="4.5" fill="#2D3047"/>
    <circle cx="132" cy="72" r="4.5" fill="#2D3047"/>
    <!-- 볼 -->
    <circle cx="96"  cy="84" r="8" fill="#FFB0B0" opacity="0.5"/>
    <circle cx="144" cy="84" r="8" fill="#FFB0B0" opacity="0.5"/>
    <!-- 입 -->
    <path d="M 112,86 Q 120,94 128,86" stroke="#D06060" stroke-width="2.5" fill="none" stroke-linecap="round"/>
    <!-- 상의 -->
    <rect x="92" y="110" width="56" height="66" rx="10" fill="#FFD166"/>
    <!-- 팔 -->
    <path d="M 92,122 L 62,148 L 62,172"  fill="none" stroke="#FFD166" stroke-width="16" stroke-linecap="round" stroke-linejoin="round"/>
    <path d="M 148,122 L 178,148 L 178,172" fill="none" stroke="#FFD166" stroke-width="16" stroke-linecap="round" stroke-linejoin="round"/>
    <!-- 손 -->
    <circle cx="62"  cy="176" r="12" fill="#FFE0BD"/>
    <circle cx="178" cy="176" r="12" fill="#FFE0BD"/>
    <!-- 치마 -->
    <path d="M 90,172 Q 120,180 150,172 L 160,294 L 80,294 Z" fill="#FF8FAB"/>
    <!-- 주름 -->
    <line x1="100" y1="176" x2="88"  y2="294" stroke="#E07090" stroke-width="2" opacity="0.45"/>
    <line x1="120" y1="178" x2="120" y2="294" stroke="#E07090" stroke-width="2" opacity="0.45"/>
    <line x1="140" y1="176" x2="152" y2="294" stroke="#E07090" stroke-width="2" opacity="0.45"/>
    <!-- 신발 -->
    <ellipse cx="98"  cy="297" rx="20" ry="9" fill="#E63946"/>
    <ellipse cx="142" cy="297" rx="20" ry="9" fill="#E63946"/>
  </g>

  <!-- hit:5  아기 — L4 translate(1250,480)  pad 300×360 -->
  <g data-hit="5" transform="translate(1250,480)">
    <rect class="hit-pad" x="0" y="0" width="300" height="360" fill="transparent"/>
    <!-- 머리 (크고 둥글) -->
    <circle cx="150" cy="84" r="52" fill="#FFE0BD"/>
    <!-- 아기 머리카락 -->
    <path d="M 116,48 Q 150,34 184,48" stroke="#3A2A1A" stroke-width="5" fill="none" stroke-linecap="round"/>
    <!-- 눈 (크게) -->
    <circle cx="132" cy="80" r="8"  fill="#2D3047"/>
    <circle cx="168" cy="80" r="8"  fill="#2D3047"/>
    <circle cx="135" cy="77" r="3"  fill="#ffffff" opacity="0.7"/>
    <circle cx="171" cy="77" r="3"  fill="#ffffff" opacity="0.7"/>
    <!-- 볼 -->
    <circle cx="114" cy="96" r="14" fill="#FFB0B0" opacity="0.5"/>
    <circle cx="186" cy="96" r="14" fill="#FFB0B0" opacity="0.5"/>
    <!-- 코 -->
    <circle cx="150" cy="94"  r="5" fill="#F0A880" opacity="0.65"/>
    <!-- 입 -->
    <circle cx="150" cy="112" r="9" fill="#E08070" opacity="0.8"/>
    <!-- 롬퍼 몸통 -->
    <rect x="112" y="134" width="76" height="90" rx="20" fill="#A8DADC"/>
    <!-- 단추 -->
    <circle cx="150" cy="150" r="5" fill="#5A9BAC"/>
    <circle cx="150" cy="168" r="5" fill="#5A9BAC"/>
    <circle cx="150" cy="186" r="5" fill="#5A9BAC"/>
    <!-- 팔 -->
    <path d="M 112,150 L 82,166 L 78,190"  fill="none" stroke="#A8DADC" stroke-width="22" stroke-linecap="round" stroke-linejoin="round"/>
    <path d="M 188,150 L 218,166 L 222,190" fill="none" stroke="#A8DADC" stroke-width="22" stroke-linecap="round" stroke-linejoin="round"/>
    <!-- 손 -->
    <circle cx="78"  cy="194" r="15" fill="#FFE0BD"/>
    <circle cx="222" cy="194" r="15" fill="#FFE0BD"/>
    <!-- 다리 -->
    <rect x="116" y="220" width="28" height="64" rx="14" fill="#A8DADC"/>
    <rect x="156" y="220" width="28" height="64" rx="14" fill="#A8DADC"/>
    <!-- 신발 -->
    <ellipse cx="130" cy="286" rx="18" ry="10" fill="#FFD166"/>
    <ellipse cx="170" cy="286" rx="18" ry="10" fill="#FFD166"/>
  </g>

</svg>
